<?xml version="1.0" encoding="utf-8"?>
<!-- Generator: Adobe Illustrator 25.0.1, SVG Export Plug-In . SVG Version: 6.00 Build 0)  -->
<svg version="1.1" id="Ebene_1" xmlns="http://www.w3.org/2000/svg" xmlns:xlink="http://www.w3.org/1999/xlink" x="0px" y="0px"
	 viewBox="0 0 830.8 521.1" style="enable-background:new 0 0 830.8 521.1;" xml:space="preserve">
<style type="text/css">
	.st0{enable-background:new    ;}
</style>
<g id="Logo" transform="translate(-175.874 -313.177)">
	<path id="ic_school_24px" d="M329.3,660.5l55,95.3l219.4-5.3L718,563.2l-55-95.3L548.7,655.2L329.3,660.5z M356,321.5L176.4,615.9
		l344.7-8.4l146.9-240.9l95.1,164.7l47.7-27.5L700.8,313.2L356,321.5z"/>
	<path id="ic_trending_up_24px" d="M861.6,496.2l55.2,31.8l-67.9,117.6L752.6,590l-103,178.7l34,19.6L767,643.8l96.4,55.6L951,547.8
		l55.2,31.8l-30.6-114L861.6,496.2z"/>
	<g class="st0">
		<path d="M448.1,818.9h-28.5c1,5.3,5.4,8.7,11.8,8.7c4.1,0,7.3-1.3,9.9-3.9l4.6,5.2c-3.3,3.9-8.4,5.9-14.6,5.9
			c-12.2,0-20.1-7.8-20.1-18.7s8-18.6,18.8-18.6c10.6,0,18.4,7.4,18.4,18.8C448.2,817,448.1,818,448.1,818.9z M419.5,813.2h20.6
			c-0.7-5.2-4.7-8.9-10.3-8.9C424.3,804.4,420.3,807.9,419.5,813.2z"/>
		<path d="M484.7,834.3l-12.9-18.1L459,834.3h-10.1l17.7-24.3l-16.7-23.4h10l12.2,17l12.1-17h9.6l-16.7,23l17.9,24.6H484.7z"/>
		<path d="M530.3,813v21.3h-8v-4.4c-2,3.1-6,4.9-11.4,4.9c-8.3,0-13.5-4.6-13.5-10.9c0-6.1,4.1-10.8,15.1-10.8h9.4v-0.5
			c0-5-3-7.9-9.1-7.9c-4.1,0-8.3,1.4-11,3.6l-3.3-6.2c3.9-3,9.5-4.5,15.4-4.5C524.3,797.5,530.3,802.5,530.3,813z M521.8,822.9v-4.2
			H513c-5.8,0-7.4,2.2-7.4,4.8c0,3.1,2.6,5,6.9,5C516.8,828.6,520.4,826.7,521.8,822.9z"/>
		<path d="M602,813.5v20.8h-8.5v-19.7c0-6.5-3-9.6-8.2-9.6c-5.6,0-9.5,3.7-9.5,10.9v18.5h-8.5v-19.7c0-6.5-3-9.6-8.2-9.6
			c-5.7,0-9.5,3.7-9.5,10.9v18.5h-8.5V798h8.1v4.6c2.7-3.3,6.9-5,11.9-5c5.3,0,9.7,2,12.3,6.1c2.9-3.7,7.8-6.1,13.6-6.1
			C595.9,797.5,602,802.5,602,813.5z"/>
		<path d="M643.3,813v21.3h-8v-4.4c-2,3.1-6,4.9-11.4,4.9c-8.3,0-13.5-4.6-13.5-10.9c0-6.1,4.1-10.8,15.1-10.8h9.4v-0.5
			c0-5-3-7.9-9.1-7.9c-4.1,0-8.3,1.4-11,3.6l-3.3-6.2c3.9-3,9.5-4.5,15.4-4.5C637.3,797.5,643.3,802.5,643.3,813z M634.8,822.9v-4.2
			H626c-5.8,0-7.4,2.2-7.4,4.8c0,3.1,2.6,5,6.9,5C629.8,828.6,633.4,826.7,634.8,822.9z"/>
	</g>
</g>
</svg>
